<svg width="32" height="32" viewBox="0 0 32 32" fill="none" xmlns="http://www.w3.org/2000/svg">
<g clip-path="url(#clip0_3404_185)">
<path fill-rule="evenodd" clip-rule="evenodd" d="M17.1531 2.10399L17.6972 1.87019C17.9045 1.78112 18.0002 1.54084 17.911 1.33364L17.4423 0.244801C17.3532 0.0377677 17.1132 -0.0578847 16.9061 0.0311095L16.3616 0.265103C13.5033 1.49344 11.9452 3.54958 11.1449 5.56488C11.1048 5.66587 11.0277 5.74768 10.9292 5.79361C10.9142 5.80058 10.8993 5.80758 10.8844 5.81461C10.5591 5.96807 10.193 5.68212 10.3225 5.34654C10.6978 4.37352 11.312 3.40104 12.2586 2.50324L12.6878 2.0962C12.8516 1.94085 12.8582 1.68207 12.7026 1.51852L11.8852 0.659328C11.7299 0.496144 11.4718 0.489517 11.3084 0.644517L10.8783 1.05244C8.63755 3.17763 7.88356 5.62598 7.82244 7.78242C7.81944 7.88823 7.77638 7.98885 7.7018 8.06398V8.06398C7.45304 8.31459 7.01966 8.17151 7.02843 7.81851C7.05415 6.78426 7.30169 5.67143 7.88104 4.51703L8.14628 3.98851C8.24756 3.78672 8.16583 3.54104 7.96385 3.44013L6.90284 2.91004C6.70138 2.80939 6.45646 2.89087 6.35544 3.09215L6.08954 3.62199C4.71255 6.36571 4.82784 8.91139 5.49457 10.9547C5.52789 11.0568 5.52145 11.1676 5.47643 11.2652C5.47427 11.2699 5.4721 11.2746 5.46995 11.2793C5.31878 11.608 4.85097 11.6226 4.73724 11.2792C4.416 10.3091 4.27245 9.19359 4.41754 7.93003L4.48505 7.34214C4.51079 7.11793 4.34976 6.91536 4.12551 6.88988L2.94736 6.75602C2.72349 6.73058 2.52134 6.89129 2.49564 7.11512L2.42802 7.70398C2.07754 10.7561 3.06349 13.1095 4.39425 14.8008C4.46009 14.8845 4.49222 14.9897 4.48424 15.0959C4.46315 15.3764 4.45242 15.6598 4.45242 15.9457V15.9457C4.45242 15.984 4.40641 16.0036 4.37927 15.9766C3.48329 15.0832 2.73305 13.8802 2.35198 12.2806L2.21466 11.7042C2.16241 11.4848 1.94222 11.3494 1.72286 11.4016L0.569999 11.6763C0.350649 11.7286 0.215194 11.9487 0.267448 12.1681L0.404766 12.7445C1.11881 15.7419 2.85674 17.6218 4.69079 18.7587C4.78101 18.8147 4.84706 18.9022 4.87605 19.0043C4.88284 19.0282 4.88971 19.0521 4.89666 19.076C4.99814 19.4246 4.65192 19.7426 4.34103 19.5551C3.45593 19.0213 2.61222 18.2573 1.89583 17.1868L1.56583 16.6937C1.44052 16.5065 1.18722 16.4561 0.999827 16.5812L0.0146601 17.2388C-0.173043 17.3641 -0.223492 17.618 -0.0979745 17.8055L0.231494 18.2978C1.96174 20.8832 4.27271 22.0398 6.4048 22.4592C6.50846 22.4796 6.60135 22.5386 6.66448 22.6233V22.6233C6.88131 22.9142 6.67139 23.3366 6.31473 23.2699C5.28196 23.0769 4.20621 22.6466 3.14508 21.8721L2.66549 21.522C2.48359 21.3892 2.22853 21.4288 2.09542 21.6105L1.39553 22.5657C1.26209 22.7478 1.30179 23.0036 1.48416 23.1368L1.96256 23.486C4.49999 25.3381 7.09248 25.621 9.25131 25.2697C9.3559 25.2527 9.46302 25.2752 9.55183 25.3331V25.3331C9.85557 25.5308 9.80343 25.9981 9.44629 26.0598C8.39057 26.2421 7.20743 26.2089 5.91589 25.8311L5.34613 25.6645C5.12995 25.6012 4.9034 25.725 4.83983 25.9411L4.50556 27.0772C4.44185 27.2938 4.56597 27.521 4.78264 27.5843L5.35115 27.7506C8.40799 28.6447 10.97 28.0039 12.8898 26.9157C12.9819 26.8635 13.0898 26.8474 13.193 26.8707V26.8707C13.5458 26.9502 13.6641 27.4058 13.3523 27.5889C12.4088 28.143 11.2623 28.5331 9.88405 28.6214L9.29228 28.6594C9.06735 28.6738 8.89664 28.8677 8.91091 29.0927L8.98592 30.2751C9.0002 30.5002 9.19436 30.6711 9.4195 30.6567L10.0107 30.6188C13.2267 30.4127 15.4282 28.9034 16.8579 27.2009C16.9266 27.1192 17.0234 27.0662 17.1292 27.0526C17.1479 27.0502 17.1666 27.0477 17.1853 27.0452C17.5417 26.9974 17.8042 27.3808 17.5798 27.6617C16.8824 28.5345 15.9264 29.3227 14.631 29.8971L14.0897 30.1371C13.8835 30.2285 13.7905 30.4699 13.8821 30.6761L14.3633 31.7595C14.4548 31.9654 14.6959 32.0583 14.9019 31.967L15.4437 31.7267C18.4156 30.409 19.9575 28.2036 20.6994 26.0947C20.7351 25.9934 20.8076 25.9094 20.9027 25.8593C20.9066 25.8573 20.9106 25.8552 20.9145 25.8531C21.2314 25.6859 21.6091 25.9529 21.4982 26.2935C21.1464 27.3738 20.5135 28.4653 19.4717 29.4681L19.0456 29.8783C18.8829 30.0348 18.8782 30.2936 19.035 30.456L19.8588 31.3092C20.0152 31.4712 20.2733 31.4759 20.4356 31.3197L20.8627 30.9086C23.2208 28.639 23.9063 26.0186 23.8697 23.7727C23.8679 23.6643 23.9079 23.5589 23.981 23.4787V23.4787C24.2213 23.215 24.668 23.333 24.682 23.6896C24.727 24.8386 24.5061 26.0973 23.858 27.4127L23.5966 27.9431C23.4968 28.1456 23.5803 28.3907 23.783 28.4902L24.8478 29.0125C25.05 29.1117 25.2943 29.0284 25.3939 28.8264L25.6559 28.2946C27.1076 25.3487 26.8531 22.6419 26.047 20.5384C26.008 20.4366 26.0098 20.3231 26.0515 20.2224V20.2224C26.1877 19.8937 26.6479 19.8462 26.7844 20.1747C27.2281 21.2431 27.458 22.5083 27.3006 23.9759L27.2375 24.5643C27.2135 24.7887 27.376 24.99 27.6005 25.0138L28.7796 25.1389C29.0036 25.1626 29.2046 25.0004 29.2286 24.7764L29.2918 24.187C29.6418 20.9226 28.4716 18.4676 26.991 16.7682C26.919 16.6856 26.8817 16.5786 26.8867 16.4692C26.8947 16.2957 26.8988 16.1211 26.8988 15.9457V15.9457C26.8988 15.7965 27.0733 15.714 27.1817 15.8165C28.1286 16.712 28.9302 17.9381 29.3382 19.5938L29.4799 20.1691C29.5339 20.3881 29.7551 20.5218 29.9741 20.4679L31.1248 20.1843C31.3437 20.1304 31.4775 19.9091 31.4235 19.6902L31.2817 19.1149C30.4988 15.9373 28.5706 14.0292 26.6053 12.9332C26.5169 12.8839 26.4511 12.8017 26.4218 12.7049V12.7049C26.3272 12.3923 26.6305 12.1007 26.9195 12.2527C27.9533 12.7967 28.9477 13.6329 29.7682 14.879L30.0944 15.3746C30.2183 15.5628 30.4713 15.615 30.6596 15.4914L31.6497 14.8411C31.8383 14.7173 31.8907 14.4638 31.7666 14.2753L31.4408 13.7806C29.6529 11.0649 27.2189 9.90535 25.0119 9.51842C24.9076 9.50014 24.8145 9.44212 24.7521 9.35662V9.35662C24.5504 9.08039 24.7482 8.68656 25.0863 8.73802C26.2153 8.90981 27.4013 9.35823 28.5647 10.2271L29.0404 10.5824C29.2209 10.7171 29.4763 10.6803 29.6114 10.5001L30.3217 9.55262C30.4571 9.37196 30.4202 9.11569 30.2393 8.98059L29.7647 8.62619C27.1902 6.70347 24.54 6.42199 22.3483 6.7866C22.2395 6.80469 22.1281 6.77994 22.0373 6.71747C22.0242 6.70845 22.011 6.69946 21.9979 6.6905C21.7035 6.48982 21.7601 6.0339 22.1105 5.96906C23.2029 5.7669 24.4334 5.79463 25.7795 6.1991L26.3481 6.36993C26.5638 6.43474 26.7912 6.31263 26.8564 6.09703L27.199 4.9634C27.2643 4.7473 27.1419 4.51922 26.9257 4.45425L26.3584 4.2838C23.3052 3.36639 20.7365 3.9905 18.8081 5.06649C18.7164 5.11764 18.6095 5.13172 18.5079 5.10535V5.10535C18.1762 5.01929 18.0802 4.58734 18.3767 4.41551C19.3266 3.86491 20.4801 3.48055 21.8649 3.40244L22.457 3.36904C22.682 3.35634 22.8542 3.1637 22.8417 2.93867L22.7757 1.75574C22.7632 1.53049 22.5703 1.35811 22.3451 1.37082L21.7535 1.40419C18.616 1.58118 16.4335 3.00494 14.9892 4.64413C14.9167 4.7264 14.8154 4.77754 14.7061 4.78687C14.694 4.7879 14.6819 4.78895 14.6698 4.79002C14.3132 4.82164 14.0682 4.42983 14.3021 4.1587C14.9971 3.35295 15.9253 2.63165 17.1531 2.10399Z" fill="#AF0C5A"/>
<path d="M21.2975 17.8325C21.9647 18.7294 22.1045 19.7044 21.7171 20.7576C21.3297 21.8107 20.561 22.5014 19.4109 22.8298C18.8609 22.9869 18.2998 22.9931 17.7277 22.8484C17.2259 22.7214 16.8034 22.4951 16.4604 22.1694C16.374 22.0875 16.2474 22.0605 16.1372 22.1055C14.879 22.6191 13.6939 22.5636 12.5817 21.9391C11.4635 21.3114 10.7732 20.3073 10.5108 18.9269C10.4902 18.8183 10.4092 18.7309 10.3034 18.6988C9.79862 18.5456 9.36395 18.2812 8.99942 17.9055C8.59321 17.4869 8.30024 16.9589 8.1205 16.3215C7.83198 15.2982 8.06157 14.3401 8.80924 13.4469C9.55691 12.5537 10.4245 12.1655 11.4119 12.2822L12.9172 12.4658C13.0498 12.482 13.1738 12.4002 13.2197 12.2748C13.4126 11.7474 13.7105 11.2707 14.1132 10.8447C14.5106 10.4245 14.9704 10.1059 15.4928 9.88893C15.6275 9.83299 15.7049 9.68712 15.6653 9.54678L15.3669 8.48852C15.3054 8.27047 15.3254 8.06992 15.4269 7.88689C15.5283 7.70386 15.6874 7.5814 15.9041 7.51952C16.1207 7.45764 16.32 7.47776 16.5019 7.57988C16.6838 7.68199 16.8055 7.84207 16.8669 8.06013L17.2369 9.37207C17.27 9.48929 17.3763 9.5699 17.4979 9.57671C18.0827 9.60949 18.6043 9.75132 19.0625 10.0022C19.5329 10.2598 19.9909 10.6629 20.4366 11.2115C20.5075 11.2988 20.6232 11.3372 20.7313 11.3064L22.0024 10.9434C22.219 10.8815 22.4183 10.9016 22.6002 11.0038C22.7821 11.1059 22.9037 11.2659 22.9652 11.484C23.0267 11.702 23.0067 11.9026 22.9052 12.0856C22.8038 12.2687 22.6447 12.3911 22.428 12.453L21.3779 12.7529C21.2377 12.7929 21.1541 12.9355 21.178 13.0794C21.271 13.6406 21.2514 14.1998 21.1192 14.757C20.9846 15.3241 20.7446 15.8292 20.3993 16.2724C20.3195 16.3747 20.3132 16.5182 20.391 16.622L21.2975 17.8325ZM15.0011 20.2713C15.1498 20.2423 15.2337 20.0892 15.1974 19.9422C15.1075 19.5782 15.0442 19.2155 15.0075 18.854C14.9852 18.6344 14.9727 18.4152 14.97 18.1965C14.967 17.9487 14.6572 17.7917 14.4498 17.9274C14.2659 18.0478 14.0714 18.1572 13.8662 18.2556C13.5375 18.4132 13.202 18.5368 12.8596 18.6263C12.705 18.6667 12.607 18.8251 12.6643 18.9743C12.8589 19.4816 13.1609 19.8502 13.5703 20.08C13.9847 20.3128 14.4617 20.3765 15.0011 20.2713ZM12.2538 16.6091C12.7872 16.4568 13.2391 16.2552 13.6096 16.0045C13.8926 15.8129 14.2239 15.523 14.6036 15.1347C14.76 14.9749 14.6617 14.709 14.4397 14.6825L11.6153 14.3447C11.0752 14.2815 10.6638 14.4034 10.3813 14.7107C10.0987 15.0179 10.0213 15.398 10.149 15.8509C10.2719 16.287 10.5035 16.5652 10.8436 16.6856C11.1837 16.8059 11.6538 16.7805 12.2538 16.6091ZM18.8433 20.8171C19.26 20.698 19.5561 20.4549 19.7317 20.0875C19.9072 19.7203 19.8835 19.3963 19.6602 19.1157L17.6863 16.5267C17.5476 16.3447 17.263 16.4028 17.2179 16.6272C17.1305 17.0616 17.0785 17.486 17.0618 17.9003C17.0382 18.487 17.0878 18.9985 17.2108 19.4346C17.3669 19.9881 17.5822 20.3842 17.8566 20.6231C18.1311 20.8619 18.46 20.9265 18.8433 20.8171ZM18.6618 14.4458C18.7847 14.5965 19.0173 14.5717 19.0662 14.3835C19.0985 14.2589 19.1199 14.1241 19.1304 13.9793C19.1523 13.6739 19.1207 13.3703 19.0356 13.0684C18.8842 12.5316 18.5815 12.1287 18.1274 11.8597C17.6734 11.5906 17.188 11.5299 16.6713 11.6774C16.3713 11.7631 16.1021 11.8943 15.8638 12.0711C15.7399 12.1631 15.6304 12.2632 15.5353 12.3715C15.4094 12.5149 15.5088 12.7232 15.6972 12.753L17.4113 13.0241C17.478 13.0346 17.5385 13.0694 17.5813 13.1218L18.6618 14.4458Z" fill="#F7FEFF"/>
</g>
<defs>
<clipPath id="clip0_3404_185">
<rect width="32" height="32" fill="white"/>
</clipPath>
</defs>
</svg>
